<?xml version="1.0" encoding="UTF-8"?>
<svg width="378px" height="100px" viewBox="0 0 378 100" version="1.1" xmlns="http://www.w3.org/2000/svg" xmlns:xlink="http://www.w3.org/1999/xlink">
    <!-- Generator: Sketch 58 (84663) - https://sketch.com -->
    <title>mes-aides</title>
    <desc>Created with Sketch.</desc>
    <g id="mes-aides" stroke="none" stroke-width="1" fill="none" fill-rule="evenodd" fill-opacity="0.775404283">
        <path d="M3.504,43.432 L8.064,43.432 L8.448,46.648 L8.64,46.648 C9.63200496,45.5919947 10.7119942,44.6960037 11.88,43.96 C13.0480058,43.2239963 14.3679926,42.856 15.84,42.856 C17.5680086,42.856 18.9519948,43.2239963 19.992,43.96 C21.0320052,44.6960037 21.8239973,45.7359933 22.368,47.08 C23.4880056,45.8639939 24.6559939,44.856 25.872,44.056 C27.0880061,43.255996 28.4479925,42.856 29.952,42.856 C32.4480125,42.856 34.2879941,43.6639919 35.472,45.28 C36.6560059,46.8960081 37.248,49.207985 37.248,52.216 L37.248,67 L31.68,67 L31.68,52.936 C31.68,50.9839902 31.384003,49.608004 30.792,48.808 C30.199997,48.007996 29.2960061,47.608 28.08,47.608 C26.6079926,47.608 24.9600091,48.5839902 23.136,50.536 L23.136,67 L17.616,67 L17.616,52.936 C17.616,50.9839902 17.320003,49.608004 16.728,48.808 C16.135997,48.007996 15.2160062,47.608 13.968,47.608 C12.4959926,47.608 10.8480091,48.5839902 9.024,50.536 L9.024,67 L3.504,67 L3.504,43.432 Z M43.4754783,55.24 C43.4754783,53.3199904 43.7794752,51.5920077 44.3874783,50.056 C44.9954813,48.5199923 45.8034732,47.2240053 46.8114783,46.168 C47.8194833,45.1119947 48.9794717,44.2960029 50.2914783,43.72 C51.6034848,43.1439971 52.9474714,42.856 54.3234783,42.856 C55.9234863,42.856 57.3314722,43.1279973 58.5474783,43.672 C59.7634843,44.2160027 60.7794742,44.983995 61.5954783,45.976 C62.4114823,46.968005 63.0274762,48.1519931 63.4434783,49.528 C63.8594803,50.9040069 64.0674783,52.4079918 64.0674783,54.04 C64.0674783,55.1280054 63.9874791,55.9919968 63.8274783,56.632 L48.8514783,56.632 C49.1074795,58.7760107 49.8514721,60.4239942 51.0834783,61.576 C52.3154844,62.7280058 53.8914687,63.304 55.8114783,63.304 C56.8354834,63.304 57.7874739,63.1520015 58.6674783,62.848 C59.5474827,62.5439985 60.4194739,62.1200027 61.2834783,61.576 L63.1554783,65.032 C62.0354727,65.7680037 60.7874851,66.3759976 59.4114783,66.856 C58.0354714,67.3360024 56.5954858,67.576 55.0914783,67.576 C53.4594701,67.576 51.9394853,67.2960028 50.5314783,66.736 C49.1234712,66.1759972 47.8914835,65.3680053 46.8354783,64.312 C45.779473,63.2559947 44.9554812,61.9680076 44.3634783,60.448 C43.7714753,58.9279924 43.4754783,57.1920098 43.4754783,55.24 Z M59.2674783,53.128 C59.2674783,51.2399906 58.8754822,49.7680053 58.0914783,48.712 C57.3074743,47.6559947 56.0994864,47.128 54.4674783,47.128 C53.0594712,47.128 51.8274835,47.631995 50.7714783,48.64 C49.715473,49.648005 49.0594795,51.1439901 48.8034783,53.128 L59.2674783,53.128 Z M70.6309565,60.76 C71.6869618,61.5920042 72.7349513,62.2399977 73.7749565,62.704 C74.8149617,63.1680023 75.9429504,63.4 77.1589565,63.4 C78.4389629,63.4 79.3829535,63.1360026 79.9909565,62.608 C80.5989596,62.0799974 80.9029565,61.4000042 80.9029565,60.568 C80.9029565,60.0879976 80.758958,59.6640018 80.4709565,59.296 C80.1829551,58.9279982 79.7989589,58.6000014 79.3189565,58.312 C78.8389541,58.0239986 78.2949596,57.7600012 77.6869565,57.52 C77.0789535,57.2799988 76.4709596,57.0320013 75.8629565,56.776 C75.0949527,56.4879986 74.3109605,56.1520019 73.5109565,55.768 C72.7109525,55.3839981 71.9989596,54.9200027 71.3749565,54.376 C70.7509534,53.8319973 70.2389585,53.2000036 69.8389565,52.48 C69.4389545,51.7599964 69.2389565,50.904005 69.2389565,49.912 C69.2389565,47.8319896 70.0069488,46.1360066 71.5429565,44.824 C73.0789642,43.5119934 75.1749432,42.856 77.8309565,42.856 C79.4629647,42.856 80.93495,43.1439971 82.2469565,43.72 C83.5589631,44.2960029 84.6949517,44.9519963 85.6549565,45.688 L83.1109565,49.048 C82.2789524,48.439997 81.4389608,47.9520018 80.5909565,47.584 C79.7429523,47.2159982 78.8549612,47.032 77.9269565,47.032 C76.7429506,47.032 75.8709593,47.2799975 75.3109565,47.776 C74.7509537,48.2720025 74.4709565,48.8879963 74.4709565,49.624 C74.4709565,50.1040024 74.6069552,50.5119983 74.8789565,50.848 C75.1509579,51.1840017 75.5109543,51.4799987 75.9589565,51.736 C76.4069588,51.9920013 76.9269536,52.2319989 77.5189565,52.456 C78.1109595,52.6800011 78.7269533,52.9039989 79.3669565,53.128 C80.1669605,53.4160014 80.9669525,53.7439982 81.7669565,54.112 C82.5669605,54.4800018 83.2949532,54.9359973 83.9509565,55.48 C84.6069598,56.0240027 85.1349545,56.6879961 85.5349565,57.472 C85.9349585,58.2560039 86.1349565,59.1919946 86.1349565,60.28 C86.1349565,61.3040051 85.9349585,62.2559956 85.5349565,63.136 C85.1349545,64.0160044 84.5509604,64.7839967 83.7829565,65.44 C83.0149527,66.0960033 82.0549623,66.6159981 80.9029565,67 C79.7509508,67.3840019 78.4389639,67.576 76.9669565,67.576 C75.3349484,67.576 73.7269644,67.2640031 72.1429565,66.64 C70.5589486,66.0159969 69.1909623,65.2400046 68.0389565,64.312 L70.6309565,60.76 Z M91.1144348,52.888 L102.538435,52.888 L102.538435,56.92 L91.1144348,56.92 L91.1144348,52.888 Z M108.093913,60.664 C108.093913,58.1359874 109.197902,56.1840069 111.405913,54.808 C113.613924,53.4319931 117.133889,52.4720027 121.965913,51.928 C121.965913,51.319997 121.885914,50.7360028 121.725913,50.176 C121.565912,49.6159972 121.317915,49.1200022 120.981913,48.688 C120.645911,48.2559978 120.213916,47.9200012 119.685913,47.68 C119.15791,47.4399988 118.493917,47.32 117.693913,47.32 C116.509907,47.32 115.365919,47.5439978 114.261913,47.992 C113.157908,48.4400022 112.093913,48.9839968 111.069913,49.624 L109.053913,45.928 C110.36592,45.0959958 111.829905,44.376003 113.445913,43.768 C115.061921,43.159997 116.813904,42.856 118.701913,42.856 C121.677928,42.856 123.885906,43.7279913 125.325913,45.472 C126.76592,47.2160087 127.485913,49.7359835 127.485913,53.032 L127.485913,67 L122.973913,67 L122.541913,64.408 L122.397913,64.408 C121.341908,65.3040045 120.213919,66.055997 119.013913,66.664 C117.813907,67.272003 116.50992,67.576 115.101913,67.576 C113.021903,67.576 111.33392,66.9440063 110.037913,65.68 C108.741907,64.4159937 108.093913,62.7440104 108.093913,60.664 Z M113.469913,60.232 C113.469913,61.2880053 113.78191,62.0559976 114.405913,62.536 C115.029916,63.0160024 115.837908,63.256 116.829913,63.256 C117.789918,63.256 118.669909,63.0320022 119.469913,62.584 C120.269917,62.1359978 121.101909,61.4960042 121.965913,60.664 L121.965913,55.384 C120.365905,55.576001 119.021918,55.8319984 117.933913,56.152 C116.845908,56.4720016 115.973916,56.831998 115.317913,57.232 C114.66191,57.632002 114.189914,58.0879974 113.901913,58.6 C113.613912,59.1120026 113.469913,59.6559971 113.469913,60.232 Z M138.033391,39.304 C137.041386,39.304 136.225395,39.016 135.585391,38.44 C134.945388,37.8639971 134.625391,37.1120046 134.625391,36.184 C134.625391,35.2559954 134.945388,34.496003 135.585391,33.904 C136.225395,33.311997 137.041386,33.016 138.033391,33.016 C139.025396,33.016 139.841388,33.311997 140.481391,33.904 C141.121395,34.496003 141.441391,35.2559954 141.441391,36.184 C141.441391,37.1120046 141.121395,37.8639971 140.481391,38.44 C139.841388,39.016 139.025396,39.304 138.033391,39.304 Z M135.249391,43.432 L140.769391,43.432 L140.769391,67 L135.249391,67 L135.249391,43.432 Z M147.42887,55.24 C147.42887,53.3199904 147.708867,51.5920077 148.26887,50.056 C148.828872,48.5199923 149.572865,47.2240053 150.50087,46.168 C151.42887,45.112 152.492864,44.2960029 153.69287,43.72 C154.892876,43.1439971 156.132863,42.856 157.41287,42.856 C158.756876,42.856 159.892865,43.0879977 160.82087,43.552 C161.748874,44.0160023 162.676865,44.647996 163.60487,45.448 L163.41287,41.656 L163.41287,33.112 L168.93287,33.112 L168.93287,67 L164.37287,67 L163.98887,64.456 L163.79687,64.456 C162.932865,65.3200043 161.924875,66.055997 160.77287,66.664 C159.620864,67.272003 158.404876,67.576 157.12487,67.576 C154.148855,67.576 151.788878,66.4960108 150.04487,64.336 C148.300861,62.1759892 147.42887,59.1440195 147.42887,55.24 Z M153.14087,55.192 C153.14087,57.7520128 153.596865,59.6959934 154.50887,61.024 C155.420874,62.3520066 156.740861,63.016 158.46887,63.016 C160.228878,63.016 161.876862,62.1360088 163.41287,60.376 L163.41287,49.384 C162.580865,48.6479963 161.772873,48.1360014 160.98887,47.848 C160.204866,47.5599986 159.412874,47.416 158.61287,47.416 C157.076862,47.416 155.780875,48.0879933 154.72487,49.432 C153.668864,50.7760067 153.14087,52.6959875 153.14087,55.192 Z M175.448348,55.24 C175.448348,53.3199904 175.752345,51.5920077 176.360348,50.056 C176.968351,48.5199923 177.776343,47.2240053 178.784348,46.168 C179.792353,45.1119947 180.952341,44.2960029 182.264348,43.72 C183.576354,43.1439971 184.920341,42.856 186.296348,42.856 C187.896356,42.856 189.304342,43.1279973 190.520348,43.672 C191.736354,44.2160027 192.752344,44.983995 193.568348,45.976 C194.384352,46.968005 195.000346,48.1519931 195.416348,49.528 C195.83235,50.9040069 196.040348,52.4079918 196.040348,54.04 C196.040348,55.1280054 195.960349,55.9919968 195.800348,56.632 L180.824348,56.632 C181.080349,58.7760107 181.824342,60.4239942 183.056348,61.576 C184.288354,62.7280058 185.864338,63.304 187.784348,63.304 C188.808353,63.304 189.760343,63.1520015 190.640348,62.848 C191.520352,62.5439985 192.392344,62.1200027 193.256348,61.576 L195.128348,65.032 C194.008342,65.7680037 192.760355,66.3759976 191.384348,66.856 C190.008341,67.3360024 188.568355,67.576 187.064348,67.576 C185.43234,67.576 183.912355,67.2960028 182.504348,66.736 C181.096341,66.1759972 179.864353,65.3680053 178.808348,64.312 C177.752343,63.2559947 176.928351,61.9680076 176.336348,60.448 C175.744345,58.9279924 175.448348,57.1920098 175.448348,55.24 Z M191.240348,53.128 C191.240348,51.2399906 190.848352,49.7680053 190.064348,48.712 C189.280344,47.6559947 188.072356,47.128 186.440348,47.128 C185.032341,47.128 183.800353,47.631995 182.744348,48.64 C181.688343,49.648005 181.032349,51.1439901 180.776348,53.128 L191.240348,53.128 Z M202.603826,60.76 C203.659831,61.5920042 204.707821,62.2399977 205.747826,62.704 C206.787831,63.1680023 207.91582,63.4 209.131826,63.4 C210.411832,63.4 211.355823,63.1360026 211.963826,62.608 C212.571829,62.0799974 212.875826,61.4000042 212.875826,60.568 C212.875826,60.0879976 212.731828,59.6640018 212.443826,59.296 C212.155825,58.9279982 211.771828,58.6000014 211.291826,58.312 C210.811824,58.0239986 210.267829,57.7600012 209.659826,57.52 C209.051823,57.2799988 208.443829,57.0320013 207.835826,56.776 C207.067822,56.4879986 206.28383,56.1520019 205.483826,55.768 C204.683822,55.3839981 203.971829,54.9200027 203.347826,54.376 C202.723823,53.8319973 202.211828,53.2000036 201.811826,52.48 C201.411824,51.7599964 201.211826,50.904005 201.211826,49.912 C201.211826,47.8319896 201.979818,46.1360066 203.515826,44.824 C205.051834,43.5119934 207.147813,42.856 209.803826,42.856 C211.435834,42.856 212.90782,43.1439971 214.219826,43.72 C215.531833,44.2960029 216.667821,44.9519963 217.627826,45.688 L215.083826,49.048 C214.251822,48.439997 213.41183,47.9520018 212.563826,47.584 C211.715822,47.2159982 210.827831,47.032 209.899826,47.032 C208.71582,47.032 207.843829,47.2799975 207.283826,47.776 C206.723823,48.2720025 206.443826,48.8879963 206.443826,49.624 C206.443826,50.1040024 206.579825,50.5119983 206.851826,50.848 C207.123827,51.1840017 207.483824,51.4799987 207.931826,51.736 C208.379828,51.9920013 208.899823,52.2319989 209.491826,52.456 C210.083829,52.6800011 210.699823,52.9039989 211.339826,53.128 C212.13983,53.4160014 212.939822,53.7439982 213.739826,54.112 C214.53983,54.4800018 215.267823,54.9359973 215.923826,55.48 C216.579829,56.0240027 217.107824,56.6879961 217.507826,57.472 C217.907828,58.2560039 218.107826,59.1919946 218.107826,60.28 C218.107826,61.3040051 217.907828,62.2559956 217.507826,63.136 C217.107824,64.0160044 216.52383,64.7839967 215.755826,65.44 C214.987822,66.0960033 214.027832,66.6159981 212.875826,67 C211.72382,67.3840019 210.411833,67.576 208.939826,67.576 C207.307818,67.576 205.699834,67.2640031 204.115826,66.64 C202.531818,66.0159969 201.163832,65.2400046 200.011826,64.312 L202.603826,60.76 Z M223.807304,65.416 C223.807304,64.7119965 224.015302,64.1680019 224.431304,63.784 C224.847306,63.3999981 225.327302,63.208 225.871304,63.208 C226.415307,63.208 226.887302,63.3999981 227.287304,63.784 C227.687306,64.1680019 227.887304,64.7119965 227.887304,65.416 C227.887304,66.0880034 227.687306,66.6159981 227.287304,67 C226.887302,67.3840019 226.415307,67.576 225.871304,67.576 C225.327302,67.576 224.847306,67.3840019 224.431304,67 C224.015302,66.6159981 223.807304,66.0880034 223.807304,65.416 Z M236.658783,71.512 C236.658783,72.9520072 237.322776,74.1199955 238.650783,75.016 C239.978789,75.9120045 241.87477,76.36 244.338783,76.36 C245.618789,76.36 246.786777,76.1920017 247.842783,75.856 C248.898788,75.5199983 249.794779,75.0800027 250.530783,74.536 C251.266786,73.9919973 251.834781,73.3760034 252.234783,72.688 C252.634785,71.9999966 252.834783,71.2880037 252.834783,70.552 C252.834783,69.2719936 252.378787,68.3680026 251.466783,67.84 C250.554778,67.3119974 249.234791,67.048 247.506783,67.048 L242.562783,67.048 L242.310048,67.0421225 C242.071681,67.0323266 241.763927,67.0102859 241.386783,66.976 C240.85878,66.9279998 240.290786,66.8240008 239.682783,66.664 C238.626777,67.4000037 237.858785,68.1839958 237.378783,69.016 C236.89878,69.8480042 236.658783,70.6799958 236.658783,71.512 Z M234.642783,71.704 C234.642783,70.6799949 234.94678,69.6880048 235.554783,68.728 C236.162786,67.7679952 236.994777,66.9040038 238.050783,66.136 L238.050783,65.944 C237.47478,65.5919982 236.994785,65.112003 236.610783,64.504 C236.226781,63.895997 236.034783,63.1440045 236.034783,62.248 C236.034783,61.2239949 236.32278,60.3520036 236.898783,59.632 C237.474785,58.9119964 238.01878,58.3760018 238.530783,58.024 L238.530783,57.832 C237.794779,57.1919968 237.130786,56.3280054 236.538783,55.24 C235.94678,54.1519946 235.650783,52.904007 235.650783,51.496 C235.650783,50.3119941 235.858781,49.224005 236.274783,48.232 C236.690785,47.239995 237.266779,46.384 238.002783,45.664 C238.738786,44.9439964 239.602778,44.384 240.594783,43.984 C241.586788,43.583998 242.642783,43.384 243.762783,43.384 C244.402786,43.384 244.97878,43.4399994 245.490783,43.552 C246.002785,43.6640006 246.434781,43.7999992 246.786783,43.96 L254.610783,43.96 L254.610783,45.736 L249.234783,45.736 C249.970786,46.3760032 250.57878,47.199995 251.058783,48.208 C251.538785,49.216005 251.778783,50.3279939 251.778783,51.544 C251.778783,52.7280059 251.570785,53.815995 251.154783,54.808 C250.738781,55.800005 250.170786,56.6559964 249.450783,57.376 C248.730779,58.0960036 247.882787,58.655998 246.906783,59.056 C245.930778,59.456002 244.882788,59.656 243.762783,59.656 C243.122779,59.656 242.458786,59.5760008 241.770783,59.416 C241.082779,59.2559992 240.466785,59.0160016 239.922783,58.696 C239.41078,59.1120021 238.970784,59.5759974 238.602783,60.088 C238.234781,60.6000026 238.050783,61.2399962 238.050783,62.008 C238.050783,62.8400042 238.35478,63.551997 238.962783,64.144 C239.570786,64.736003 240.738774,65.032 242.466783,65.032 L247.410783,65.032 C250.002796,65.032 251.914776,65.4559958 253.146783,66.304 C254.378789,67.1520042 254.994783,68.4879909 254.994783,70.312 C254.994783,71.304005 254.738785,72.2719953 254.226783,73.216 C253.71478,74.1600047 252.986787,74.9919964 252.042783,75.712 C251.098778,76.4320036 249.954789,77.0079978 248.610783,77.44 C247.266776,77.8720022 245.762791,78.088 244.098783,78.088 C241.186768,78.088 238.882791,77.5120058 237.186783,76.36 C235.490774,75.2079942 234.642783,73.6560098 234.642783,71.704 Z M243.762783,57.976 C244.562787,57.976 245.322779,57.8240015 246.042783,57.52 C246.762783,57.2159985 247.39478,56.7760029 247.938783,56.2 C248.482785,55.6239971 248.914781,54.936004 249.234783,54.136 C249.554784,53.335996 249.714783,52.4560048 249.714783,51.496 C249.714783,50.5359952 249.554784,49.656004 249.234783,48.856 C248.914781,48.055996 248.490785,47.3840027 247.962783,46.84 C247.43478,46.2959973 246.802786,45.8720015 246.066783,45.568 C245.330779,45.2639985 244.562787,45.112 243.762783,45.112 C242.930778,45.112 242.154786,45.2639985 241.434783,45.568 C240.714779,45.8720015 240.082785,46.2959973 239.538783,46.84 C238.99478,47.3840027 238.562784,48.0479961 238.242783,48.832 C237.922781,49.6160039 237.762783,50.503995 237.762783,51.496 C237.762783,52.4560048 237.922781,53.335996 238.242783,54.136 C238.562784,54.936004 239.00278,55.6239971 239.562783,56.2 C240.122785,56.7760029 240.762783,57.2159985 241.482783,57.52 C242.202786,57.8240015 242.962779,57.976 243.762783,57.976 Z M258.534261,55.528 C258.534261,53.6079904 258.814258,51.8880076 259.374261,50.368 C259.934264,48.8479924 260.686256,47.5760051 261.630261,46.552 C262.574266,45.5279949 263.670255,44.7440027 264.918261,44.2 C266.166267,43.6559973 267.478254,43.384 268.854261,43.384 C270.230268,43.384 271.550255,43.6559973 272.814261,44.2 C274.078267,44.7440027 275.182256,45.5279949 276.126261,46.552 C277.070266,47.5760051 277.822258,48.8479924 278.382261,50.368 C278.942264,51.8880076 279.222261,53.6079904 279.222261,55.528 C279.222261,57.4480096 278.942264,59.1519926 278.382261,60.64 C277.822258,62.1280074 277.070266,63.384 276.126261,64.408 C275.182256,65.4320051 274.078267,66.2159973 272.814261,66.76 C271.550255,67.3040027 270.230268,67.576 268.854261,67.576 C267.478254,67.576 266.166267,67.3040027 264.918261,66.76 C263.670255,66.2159973 262.574266,65.4320051 261.630261,64.408 C260.686256,63.384 259.934264,62.1280074 259.374261,60.64 C258.814258,59.1519926 258.534261,57.4480096 258.534261,55.528 Z M260.742261,55.528 C260.742261,57.0320075 260.950259,58.4079938 261.366261,59.656 C261.782263,60.9040062 262.350257,61.9759955 263.070261,62.872 C263.790264,63.7680045 264.646256,64.4639975 265.638261,64.96 C266.630266,65.4560025 267.702255,65.704 268.854261,65.704 C270.006267,65.704 271.086256,65.4560025 272.094261,64.96 C273.102266,64.4639975 273.966257,63.7680045 274.686261,62.872 C275.406264,61.9759955 275.974259,60.9040062 276.390261,59.656 C276.806263,58.4079938 277.014261,57.0320075 277.014261,55.528 C277.014261,53.9919923 276.806263,52.6000062 276.390261,51.352 C275.974259,50.1039938 275.406264,49.0240046 274.686261,48.112 C273.966257,47.1999954 273.102266,46.4960025 272.094261,46 C271.086256,45.5039975 270.006267,45.256 268.854261,45.256 C267.702255,45.256 266.630266,45.5039975 265.638261,46 C264.646256,46.4960025 263.790264,47.1999954 263.070261,48.112 C262.350257,49.0240046 261.782263,50.1039938 261.366261,51.352 C260.950259,52.6000062 260.742261,53.9919923 260.742261,55.528 Z M286.841739,43.96 L288.953739,43.96 L288.953739,58.456 C288.953739,60.9200123 289.361735,62.7359942 290.177739,63.904 C290.993743,65.0720058 292.32973,65.656 294.185739,65.656 C295.561746,65.656 296.809734,65.2800038 297.929739,64.528 C299.049745,63.7759962 300.281732,62.5840082 301.625739,60.952 L301.625739,43.96 L303.737739,43.96 L303.737739,67 L301.961739,67 L301.721739,63.16 L301.625739,63.16 C300.505734,64.5040067 299.321745,65.575996 298.073739,66.376 C296.825733,67.176004 295.401747,67.576 293.801739,67.576 C291.401727,67.576 289.641745,66.8560072 288.521739,65.416 C287.401734,63.9759928 286.841739,61.752015 286.841739,58.744 L286.841739,43.96 Z M309.773217,43.96 L312.077217,43.96 L317.261217,58.408 C317.525219,59.2480042 317.807217,60.087999 318.107217,60.9279984 L318.413217,61.768 C318.829219,62.8880056 319.213216,63.9759947 319.565217,65.032 L319.757217,65.032 L320.339217,63.4240001 C320.535217,62.8800015 320.733216,62.3280028 320.933217,61.768 C321.333219,60.6479944 321.725215,59.5280056 322.109217,58.408 L327.293217,43.96 L329.453217,43.96 L320.909217,67 L318.413217,67 L309.773217,43.96 Z M333.328696,65.416 C333.328696,64.7119965 333.536694,64.1680019 333.952696,63.784 C334.368698,63.3999981 334.848693,63.208 335.392696,63.208 C335.936698,63.208 336.408694,63.3999981 336.808696,63.784 C337.208698,64.1680019 337.408696,64.7119965 337.408696,65.416 C337.408696,66.0880034 337.208698,66.6159981 336.808696,67 C336.408694,67.3840019 335.936698,67.576 335.392696,67.576 C334.848693,67.576 334.368698,67.3840019 333.952696,67 C333.536694,66.6159981 333.328696,66.0880034 333.328696,65.416 Z M345.316174,43.912 L348.436174,43.672 L349.204174,39.784 C349.684176,37.4159882 350.540168,35.5680066 351.772174,34.24 C353.00418,32.9119934 354.612164,32.248 356.596174,32.248 C357.428178,32.248 358.180171,32.351999 358.852174,32.56 C359.524177,32.768001 360.148171,33.0479982 360.724174,33.4 L359.428174,36.04 C359.076172,35.8159989 358.692176,35.6240008 358.276174,35.464 C357.860172,35.3039992 357.380177,35.224 356.836174,35.224 C355.780169,35.224 354.924177,35.623996 354.268174,36.424 C353.666838,37.157337 353.233563,38.1326615 352.968341,39.3499986 L352.084174,43.672 L356.788174,43.672 L356.212174,46.648 L351.460174,46.648 L347.380174,67 L343.732174,67 L347.812174,46.648 L344.788174,46.648 L345.316174,43.912 Z M362.055652,43.672 L365.079652,43.672 L364.551652,48.136 L364.743652,48.136 C365.671657,46.6959928 366.751646,45.4960048 367.983652,44.536 C369.215658,43.5759952 370.551645,43.096 371.991652,43.096 C372.791656,43.096 373.527649,43.2399986 374.199652,43.528 L372.903652,46.792 C372.39165,46.5359987 371.719656,46.408 370.887652,46.408 C369.735646,46.408 368.551658,46.903995 367.335652,47.896 C366.119646,48.888005 365.015657,50.3439904 364.023652,52.264 L361.095652,67 L357.447652,67 L362.055652,43.672 Z" id="mes-aides.gouv.fr" fill="#000000" fill-rule="nonzero"></path>
    </g>
</svg>